<svg width="45" height="45" viewBox="0 0 45 45" fill="none" xmlns="http://www.w3.org/2000/svg">
<path d="M32.9321 25.2988H28.1821C26.8705 25.2988 25.8071 26.3622 25.8071 27.6738V32.4238C25.8071 33.7355 26.8705 34.7988 28.1821 34.7988H32.9321C34.2438 34.7988 35.3071 33.7355 35.3071 32.4238V27.6738C35.3071 26.3622 34.2438 25.2988 32.9321 25.2988Z" stroke="#EE4FAF" stroke-width="2.06"/>
<path d="M15.9082 8.9375H18.25C18.8799 8.9375 19.484 9.18772 19.9294 9.63312C20.3748 10.0785 20.625 10.6826 20.625 11.3125V17.25C20.625 17.8799 20.3748 18.484 19.9294 18.9294C19.484 19.3748 18.8799 19.625 18.25 19.625H12.3125C11.6826 19.625 11.0785 19.3748 10.6331 18.9294C10.1877 18.484 9.9375 17.8799 9.9375 17.25V14.9415" stroke="#700044" stroke-width="2.06" stroke-linecap="round" stroke-linejoin="round"/>
<path d="M36.0625 14.2812C36.0625 11.33 33.67 8.9375 30.7188 8.9375C27.7675 8.9375 25.375 11.33 25.375 14.2812C25.375 17.2325 27.7675 19.625 30.7188 19.625C33.67 19.625 36.0625 17.2325 36.0625 14.2812Z" stroke="#700044" stroke-width="2.06"/>
<path d="M12.1546 8.9375C11.5666 8.9375 11.0026 9.17108 10.5869 9.58686C10.1711 10.0026 9.9375 10.5666 9.9375 11.1546V11.3137" stroke="#EE4FAF" stroke-width="2.06" stroke-linecap="round" stroke-linejoin="round"/>
<path fill-rule="evenodd" clip-rule="evenodd" d="M17.4071 25.2929L20.3771 31.5035C20.527 31.8166 20.5951 32.1626 20.575 32.5092C20.555 32.8558 20.4474 33.1916 20.2624 33.4854C20.0774 33.7791 19.821 34.0212 19.5171 34.189C19.2132 34.3568 18.8717 34.4449 18.5246 34.4449H12.004C11.657 34.4448 11.3157 34.3567 11.012 34.189C10.7082 34.0212 10.4519 33.7793 10.2669 33.4857C10.0819 33.1921 9.97434 32.8565 9.95416 32.5101C9.93398 32.1636 10.0019 31.8178 10.1515 31.5047L13.1214 25.2929C13.3147 24.8884 13.6185 24.547 13.9977 24.3079C14.3769 24.0689 14.816 23.942 15.2643 23.942C15.7125 23.942 16.1516 24.0689 16.5308 24.3079C16.91 24.547 17.2138 24.8884 17.4071 25.2929V25.2929Z" stroke="#700044" stroke-width="2.06"/>
</svg>
